<svg width="25" height="24" viewBox="0 0 25 24" fill="none" xmlns="http://www.w3.org/2000/svg">
<path d="M11.0124 2.54327C11.4286 2.19242 11.9555 2 12.5 2C13.0444 2 13.5713 2.19242 13.9876 2.54327L20.9126 8.38285C21.4327 8.82195 21.7333 9.46726 21.7333 10.1474V20.2046C21.7333 20.6808 21.5442 21.1374 21.2075 21.4741C20.8708 21.8108 20.4141 22 19.9379 22H16.3472C15.871 22 15.4144 21.8108 15.0777 21.4741C14.741 21.1374 14.5518 20.6808 14.5518 20.2046L14.5518 14.562C14.5518 14.494 14.5248 14.4288 14.4767 14.3807C14.4286 14.3326 14.3634 14.3055 14.2953 14.3055H10.7046C10.6366 14.3055 10.5713 14.3326 10.5232 14.3807C10.4751 14.4288 10.4481 14.494 10.4481 14.562V20.2046C10.4481 20.6808 10.2589 21.1374 9.92225 21.4741C9.58555 21.8108 9.12889 22 8.65273 22H5.06198C4.8262 22 4.59274 21.9536 4.37492 21.8633C4.15709 21.7731 3.95917 21.6409 3.79245 21.4741C3.62574 21.3074 3.49349 21.1095 3.40327 20.8917C3.31304 20.6739 3.2666 20.4404 3.2666 20.2046L3.2666 10.1474C3.2666 9.46726 3.5672 8.82195 4.08734 8.38285L11.0124 2.54327ZM12.9955 3.72C12.8568 3.60324 12.6813 3.5392 12.5 3.5392C12.3186 3.5392 12.1431 3.60324 12.0044 3.72L5.07942 9.55856C4.99372 9.6307 4.92481 9.72069 4.87749 9.82222C4.83018 9.92376 4.80561 10.0344 4.80549 10.1464L4.80549 20.2036C4.80549 20.3452 4.9204 20.4601 5.06198 20.4601H8.65273C8.72075 20.4601 8.78599 20.4331 8.83409 20.385C8.88219 20.3369 8.90921 20.2716 8.90921 20.2036V14.561C8.90921 13.5689 9.71354 12.7656 10.7046 12.7656H14.2953C15.2864 12.7656 16.0907 13.5689 16.0907 14.561V20.2036C16.0907 20.3452 16.2056 20.4601 16.3472 20.4601H19.9379C20.006 20.4601 20.0712 20.4331 20.1193 20.385C20.1674 20.3369 20.1944 20.2716 20.1944 20.2036V10.1474C20.1943 10.0354 20.1697 9.92479 20.1224 9.82325C20.0751 9.72171 20.0062 9.63173 19.9205 9.55959L12.9955 3.72Z" fill="#175A6F"/>
</svg>
