<svg width="25" height="24" viewBox="0 0 25 24" fill="none" xmlns="http://www.w3.org/2000/svg">
<path d="M12.5 2C10.5222 2 8.58879 2.58649 6.9443 3.6853C5.29981 4.78412 4.01809 6.3459 3.26121 8.17316C2.50433 10.0004 2.3063 12.0111 2.69215 13.9509C3.078 15.8907 4.03041 17.6725 5.42894 19.0711C6.82746 20.4696 8.60929 21.422 10.5491 21.8078C12.4889 22.1937 14.4996 21.9957 16.3268 21.2388C18.1541 20.4819 19.7159 19.2002 20.8147 17.5557C21.9135 15.9112 22.5 13.9778 22.5 12C22.5 9.34783 21.4464 6.80429 19.5711 4.92893C17.6957 3.05357 15.1522 2 12.5 2V2ZM20.8333 11.1667L13.3333 11.1667V3.70833C15.2535 3.89145 17.0506 4.73499 18.4183 6.09508C19.786 7.45517 20.6395 9.24759 20.8333 11.1667V11.1667ZM12.0167 20.3333C9.90615 20.2352 7.9117 19.339 6.43684 17.8262C4.96197 16.3133 4.11681 14.2967 4.07234 12.1844C4.02787 10.0721 4.78741 8.02169 6.1973 6.44811C7.60719 4.87453 9.56215 3.89523 11.6667 3.70833V11.2083C11.6667 11.6504 11.8423 12.0743 12.1548 12.3868C12.4674 12.6994 12.8913 12.875 13.3333 12.875L20.8333 12.875C20.6116 15.0163 19.5699 16.9886 17.9264 18.379C16.2828 19.7693 14.1651 20.4696 12.0167 20.3333V20.3333Z" fill="#A2A2A2"/>
</svg>
