<svg width="25" height="24" viewBox="0 0 25 24" fill="none" xmlns="http://www.w3.org/2000/svg">
<path fill-rule="evenodd" clip-rule="evenodd" d="M22.5 3.8172L22.5 20.181L21.5909 21L17.9545 21L17.0455 20.181L17.0455 3.819L17.9545 3L21.5909 3L22.5 3.8172ZM18.8636 4.6362L18.8636 19.3638L20.6818 19.3638L20.6818 4.6362L18.8636 4.6362ZM15.2273 7.3992L15.2273 20.2008L14.3182 21L10.6818 21L9.77273 20.2008L9.77273 7.3992L10.6818 6.6L14.3182 6.6L15.2273 7.3992ZM11.5909 8.2002L11.5909 19.398L13.4091 19.398L13.4091 8.1984L11.5909 8.1984L11.5909 8.2002ZM7.95455 20.2278L7.95455 10.9704L7.04545 10.2L3.40909 10.2L2.5 10.9704L2.5 20.2278L3.40909 21L7.04545 21L7.95455 20.2278ZM4.31818 19.4574L4.31818 11.7426L6.13636 11.7426L6.13636 19.4574L4.31818 19.4574Z" fill="#A2A2A2"/>
</svg>
