<svg width="24" height="24" viewBox="0 0 24 24" fill="none" xmlns="http://www.w3.org/2000/svg">
<path fill-rule="evenodd" clip-rule="evenodd" d="M20.3333 22C20.3333 22 22 22 22 20.3333C22 18.6667 20.3333 13.6667 12 13.6667C3.66667 13.6667 2 18.6667 2 20.3333C2 22 3.66667 22 3.66667 22H20.3333ZM3.70333 20.3333H20.2967C20.3045 20.3324 20.3123 20.3313 20.32 20.33L20.3333 20.3267C20.3317 19.9167 20.0767 18.6833 18.9467 17.5533C17.86 16.4667 15.815 15.3333 12 15.3333C8.18333 15.3333 6.14 16.4667 5.05333 17.5533C3.92333 18.6833 3.67 19.9167 3.66667 20.3267C3.67886 20.329 3.69109 20.3312 3.70333 20.3333ZM12 10.3333C12.8841 10.3333 13.7319 9.98214 14.357 9.35702C14.9821 8.7319 15.3333 7.88405 15.3333 7C15.3333 6.11595 14.9821 5.2681 14.357 4.64298C13.7319 4.01786 12.8841 3.66667 12 3.66667C11.1159 3.66667 10.2681 4.01786 9.64298 4.64298C9.01786 5.2681 8.66667 6.11595 8.66667 7C8.66667 7.88405 9.01786 8.7319 9.64298 9.35702C10.2681 9.98214 11.1159 10.3333 12 10.3333ZM17 7C17 8.32608 16.4732 9.59785 15.5355 10.5355C14.5979 11.4732 13.3261 12 12 12C10.6739 12 9.40215 11.4732 8.46447 10.5355C7.52678 9.59785 7 8.32608 7 7C7 5.67392 7.52678 4.40215 8.46447 3.46447C9.40215 2.52678 10.6739 2 12 2C13.3261 2 14.5979 2.52678 15.5355 3.46447C16.4732 4.40215 17 5.67392 17 7Z" fill="#A2A2A2"/>
</svg>
