<svg width="186" height="180" viewBox="0 0 186 180" fill="none" xmlns="http://www.w3.org/2000/svg">
<rect x="10.8535" y="38.728" width="154.606" height="125.043" rx="15.5173" fill="#F8CF41" stroke="#3D6770" stroke-width="6.20691"/>
<rect x="103.853" y="81.8532" width="79.0431" height="38.7931" rx="6.20691" fill="#B2B6B9" stroke="#3D6770" stroke-width="6.20691"/>
<path d="M108.5 54.375H141.429C145.714 54.375 149.188 57.8487 149.188 62.1336V65.625" stroke="#3D6770" stroke-width="6.20691" stroke-linecap="round"/>
<path d="M89.125 54.375L94.9375 54.375" stroke="#3D6770" stroke-width="6.20691" stroke-linecap="round"/>
<path d="M27.125 82.5L27.125 140.366C27.125 144.651 30.5987 148.125 34.8836 148.125L50.375 148.125" stroke="#3D6770" stroke-width="6.20691" stroke-linecap="round"/>
<path d="M60.0625 148.125H67.8125" stroke="#3D6770" stroke-width="6.20691" stroke-linecap="round"/>
<path d="M149.188 135H162.75" stroke="#3D6770" stroke-width="6.20691" stroke-linecap="round"/>
<path d="M129.812 135H137.562" stroke="#3D6770" stroke-width="6.20691" stroke-linecap="round"/>
<path d="M132.522 101.25C132.522 105.654 128.803 109.396 124 109.396C119.197 109.396 115.478 105.654 115.478 101.25C115.478 96.8454 119.197 93.103 124 93.103C128.803 93.103 132.522 96.8454 132.522 101.25Z" fill="#B2BBC3" stroke="#3D6770" stroke-width="6.20691"/>
<path d="M37.4472 40.0215L41.2121 35.3038C41.9141 34.618 42.5823 33.9625 43.2211 33.3359C46.1894 30.4244 48.5224 28.136 50.66 26.3135C53.2411 24.1129 55.3301 22.7791 57.569 22.0011C62.1369 20.4138 68.0591 20.8481 81.2597 23.4422C100.189 27.1619 114.383 20.1217 123.129 12.2335C124.299 11.1784 126.13 10.6532 127.898 10.8781C129.649 11.1008 130.812 11.9628 131.28 13.0769L142.583 40.0215H67.1784H37.4472Z" fill="#41B3DA" stroke="#3D6770" stroke-width="6.20691"/>
</svg>
